<mxfile host="app.diagrams.net" agent="Mozilla/5.0 (Macintosh; Intel Mac OS X 10_15_7) AppleWebKit/605.1.15 (KHTML, like Gecko) Version/18.4 Safari/605.1.15" version="26.2.14">
  <diagram name="Page-1" id="qFim4ivjK-6EULiRvkgu">
    <mxGraphModel dx="629" dy="774" grid="0" gridSize="10" guides="1" tooltips="1" connect="1" arrows="1" fold="1" page="1" pageScale="1" pageWidth="827" pageHeight="1169" math="0" shadow="0">
      <root>
        <mxCell id="0" />
        <mxCell id="1" parent="0" />
        <mxCell id="QltmbqzRPkb5CY0XPD9E-5" value="Person" style="swimlane;fontStyle=1;align=center;verticalAlign=top;childLayout=stackLayout;horizontal=1;startSize=26;horizontalStack=0;resizeParent=1;resizeParentMax=0;resizeLast=0;collapsible=1;marginBottom=0;whiteSpace=wrap;html=1;fillColor=#dae8fc;strokeColor=#6c8ebf;" parent="1" vertex="1">
          <mxGeometry x="990" y="310" width="310" height="184" as="geometry">
            <mxRectangle x="990" y="310" width="80" height="30" as="alternateBounds" />
          </mxGeometry>
        </mxCell>
        <mxCell id="QltmbqzRPkb5CY0XPD9E-6" value="&lt;div&gt;- person_id: INT NOT NULL (PK)&lt;/div&gt;&lt;div&gt;+ person_login: VARCHAR(50) NOT NULL UNIQUE&lt;/div&gt;&lt;div&gt;- person_password: VARCHAR(255) NOT NULL&lt;/div&gt;&lt;div&gt;+ person_name: VARCHAR(100) NOT NULL&lt;/div&gt;&lt;div&gt;# person_middlename: VARCHAR(100) NULL&lt;/div&gt;&lt;div&gt;+ person_lastname: VARCHAR(100) NOT NULL&amp;nbsp;&lt;/div&gt;&lt;div&gt;- person_phone: VARCHAR(20) NOT NULL UNIQUE&lt;/div&gt;&lt;div&gt;- person_email: VARCHAR(100) NULL UNIQUE&lt;/div&gt;&lt;div&gt;- person_regdate: TIMESTAMPZ DEFAULT CURRENT_TIMESTAMP&lt;/div&gt;" style="text;align=left;verticalAlign=top;spacingLeft=4;spacingRight=4;overflow=hidden;rotatable=0;points=[[0,0.5],[1,0.5]];portConstraint=eastwest;whiteSpace=wrap;html=1;" parent="QltmbqzRPkb5CY0XPD9E-5" vertex="1">
          <mxGeometry y="26" width="310" height="150" as="geometry" />
        </mxCell>
        <mxCell id="QltmbqzRPkb5CY0XPD9E-7" value="" style="line;strokeWidth=1;fillColor=none;align=left;verticalAlign=middle;spacingTop=-1;spacingLeft=3;spacingRight=3;rotatable=0;labelPosition=right;points=[];portConstraint=eastwest;strokeColor=inherit;" parent="QltmbqzRPkb5CY0XPD9E-5" vertex="1">
          <mxGeometry y="176" width="310" height="8" as="geometry" />
        </mxCell>
        <mxCell id="QltmbqzRPkb5CY0XPD9E-11" value="Client" style="swimlane;fontStyle=1;align=center;verticalAlign=top;childLayout=stackLayout;horizontal=1;startSize=26;horizontalStack=0;resizeParent=1;resizeParentMax=0;resizeLast=0;collapsible=1;marginBottom=0;whiteSpace=wrap;html=1;fillColor=#dae8fc;strokeColor=#6c8ebf;" parent="1" vertex="1">
          <mxGeometry x="1060" y="610" width="240" height="98" as="geometry" />
        </mxCell>
        <mxCell id="QltmbqzRPkb5CY0XPD9E-12" value="&lt;div&gt;- client_id: INT NOT NULL (PK)&lt;/div&gt;&lt;div&gt;- person_id: INT NOT NULL (FK)&lt;/div&gt;&lt;div&gt;- client_regdate: TIMESTAMPZ DEFAULT CURRENT_TIMESTAMP&lt;br&gt;&lt;/div&gt;" style="text;align=left;verticalAlign=top;spacingLeft=4;spacingRight=4;overflow=hidden;rotatable=0;points=[[0,0.5],[1,0.5]];portConstraint=eastwest;whiteSpace=wrap;html=1;" parent="QltmbqzRPkb5CY0XPD9E-11" vertex="1">
          <mxGeometry y="26" width="240" height="64" as="geometry" />
        </mxCell>
        <mxCell id="QltmbqzRPkb5CY0XPD9E-13" value="" style="line;strokeWidth=1;fillColor=none;align=left;verticalAlign=middle;spacingTop=-1;spacingLeft=3;spacingRight=3;rotatable=0;labelPosition=right;points=[];portConstraint=eastwest;strokeColor=inherit;" parent="QltmbqzRPkb5CY0XPD9E-11" vertex="1">
          <mxGeometry y="90" width="240" height="8" as="geometry" />
        </mxCell>
        <mxCell id="QltmbqzRPkb5CY0XPD9E-17" value="Role" style="swimlane;fontStyle=1;align=center;verticalAlign=top;childLayout=stackLayout;horizontal=1;startSize=26;horizontalStack=0;resizeParent=1;resizeParentMax=0;resizeLast=0;collapsible=1;marginBottom=0;whiteSpace=wrap;html=1;fillColor=#dae8fc;strokeColor=#6c8ebf;" parent="1" vertex="1">
          <mxGeometry x="490" y="480" width="240" height="118" as="geometry" />
        </mxCell>
        <mxCell id="QltmbqzRPkb5CY0XPD9E-18" value="&lt;table style=&quot;border-collapse: collapse; width: 463pt;&quot; width=&quot;617&quot; cellspacing=&quot;0&quot; cellpadding=&quot;0&quot; border=&quot;0&quot;&gt;&lt;colgroup&gt;&lt;col style=&quot;width: 463pt;&quot; width=&quot;617&quot;&gt;&lt;/colgroup&gt;&lt;tbody&gt;&lt;tr style=&quot;height: 51pt;&quot; height=&quot;68&quot;&gt;&lt;td style=&quot;padding-top: 1px; padding-right: 1px; padding-left: 1px; font-size: 12pt; font-family: Calibri, sans-serif; vertical-align: top; border: medium; height: 51pt; width: 463pt;&quot; width=&quot;617&quot; class=&quot;xl64&quot; height=&quot;68&quot;&gt;&lt;font style=&quot;font-size: 12px;&quot;&gt;- role_id: INT NOT NULL (PK)&lt;br&gt;- staff_id: INT NOT NULL (FK)&lt;br&gt;+ role_name: VARCHAR(20) NOT NULL &lt;br&gt;(&#39;мастер&#39;, &#39;менеджер&#39;)&lt;br&gt;&lt;/font&gt;&lt;/td&gt;&lt;/tr&gt;&lt;/tbody&gt;&lt;/table&gt;" style="text;align=left;verticalAlign=top;spacingLeft=4;spacingRight=4;overflow=hidden;rotatable=0;points=[[0,0.5],[1,0.5]];portConstraint=eastwest;whiteSpace=wrap;html=1;" parent="QltmbqzRPkb5CY0XPD9E-17" vertex="1">
          <mxGeometry y="26" width="240" height="84" as="geometry" />
        </mxCell>
        <mxCell id="QltmbqzRPkb5CY0XPD9E-19" value="" style="line;strokeWidth=1;fillColor=none;align=left;verticalAlign=middle;spacingTop=-1;spacingLeft=3;spacingRight=3;rotatable=0;labelPosition=right;points=[];portConstraint=eastwest;strokeColor=inherit;" parent="QltmbqzRPkb5CY0XPD9E-17" vertex="1">
          <mxGeometry y="110" width="240" height="8" as="geometry" />
        </mxCell>
        <mxCell id="QltmbqzRPkb5CY0XPD9E-25" value="Staff" style="swimlane;fontStyle=1;align=center;verticalAlign=top;childLayout=stackLayout;horizontal=1;startSize=26;horizontalStack=0;resizeParent=1;resizeParentMax=0;resizeLast=0;collapsible=1;marginBottom=0;whiteSpace=wrap;html=1;fillColor=#dae8fc;strokeColor=#6c8ebf;" parent="1" vertex="1">
          <mxGeometry x="630" y="728" width="238" height="105" as="geometry" />
        </mxCell>
        <mxCell id="QltmbqzRPkb5CY0XPD9E-26" value="&lt;div&gt;- staff_id: INT NOT NULL (PK)&lt;/div&gt;&lt;div&gt;- person_id: INT NOT NULL (FK)&lt;/div&gt;&lt;div&gt;- staff_regdate: TIMESTAMPZ DEFAULT CURRENT_TIMESTAMP&lt;br&gt;&lt;/div&gt;" style="text;strokeColor=none;fillColor=none;align=left;verticalAlign=top;spacingLeft=4;spacingRight=4;overflow=hidden;rotatable=0;points=[[0,0.5],[1,0.5]];portConstraint=eastwest;whiteSpace=wrap;html=1;" parent="QltmbqzRPkb5CY0XPD9E-25" vertex="1">
          <mxGeometry y="26" width="238" height="71" as="geometry" />
        </mxCell>
        <mxCell id="QltmbqzRPkb5CY0XPD9E-27" value="" style="line;strokeWidth=1;fillColor=none;align=left;verticalAlign=middle;spacingTop=-1;spacingLeft=3;spacingRight=3;rotatable=0;labelPosition=right;points=[];portConstraint=eastwest;strokeColor=inherit;" parent="QltmbqzRPkb5CY0XPD9E-25" vertex="1">
          <mxGeometry y="97" width="238" height="8" as="geometry" />
        </mxCell>
        <mxCell id="QltmbqzRPkb5CY0XPD9E-31" value="Masterservice" style="swimlane;fontStyle=1;align=center;verticalAlign=top;childLayout=stackLayout;horizontal=1;startSize=26;horizontalStack=0;resizeParent=1;resizeParentMax=0;resizeLast=0;collapsible=1;marginBottom=0;whiteSpace=wrap;html=1;fillColor=#dae8fc;strokeColor=#6c8ebf;" parent="1" vertex="1">
          <mxGeometry x="640" y="1065" width="220" height="108" as="geometry" />
        </mxCell>
        <mxCell id="QltmbqzRPkb5CY0XPD9E-32" value="&lt;div&gt;- masterservice_id: INT NOT NULL (PK)&lt;/div&gt;&lt;div&gt;- staff_id: INT NOT NULL (FK)&amp;nbsp;&lt;/div&gt;&lt;div&gt;- service_id: INT NOT NULL (FK)&lt;/div&gt;" style="text;strokeColor=none;fillColor=none;align=left;verticalAlign=top;spacingLeft=4;spacingRight=4;overflow=hidden;rotatable=0;points=[[0,0.5],[1,0.5]];portConstraint=eastwest;whiteSpace=wrap;html=1;" parent="QltmbqzRPkb5CY0XPD9E-31" vertex="1">
          <mxGeometry y="26" width="220" height="74" as="geometry" />
        </mxCell>
        <mxCell id="QltmbqzRPkb5CY0XPD9E-33" value="" style="line;strokeWidth=1;fillColor=none;align=left;verticalAlign=middle;spacingTop=-1;spacingLeft=3;spacingRight=3;rotatable=0;labelPosition=right;points=[];portConstraint=eastwest;strokeColor=inherit;" parent="QltmbqzRPkb5CY0XPD9E-31" vertex="1">
          <mxGeometry y="100" width="220" height="8" as="geometry" />
        </mxCell>
        <mxCell id="QltmbqzRPkb5CY0XPD9E-37" value="Slot" style="swimlane;fontStyle=1;align=center;verticalAlign=top;childLayout=stackLayout;horizontal=1;startSize=26;horizontalStack=0;resizeParent=1;resizeParentMax=0;resizeLast=0;collapsible=1;marginBottom=0;whiteSpace=wrap;html=1;fillColor=#dae8fc;strokeColor=#6c8ebf;" parent="1" vertex="1">
          <mxGeometry x="990" y="780" width="310" height="168" as="geometry" />
        </mxCell>
        <mxCell id="QltmbqzRPkb5CY0XPD9E-38" value="&lt;div&gt;- slot_id: INT NOT NULL (PK)&lt;/div&gt;&lt;div&gt;+ slot_start: TIMESTAMPZ NOT NULL -- содержит и дату и время&lt;/div&gt;&lt;div&gt;- staff_id: INT NULL (FK)&lt;/div&gt;&lt;div&gt;- client_id: INT NULL (FK)&lt;/div&gt;&lt;div&gt;+ service_id: INT NOT NULL (FK)&amp;nbsp;&lt;/div&gt;&lt;div&gt;# slot_status: ENUM(&#39;свободен&#39;, &#39;занят&#39;, &#39;выполнен&#39;, &#39;не выполнен&#39;) NOT NULL DEFAULT &#39;свободен&#39;&lt;/div&gt;" style="text;align=left;verticalAlign=top;spacingLeft=4;spacingRight=4;overflow=hidden;rotatable=0;points=[[0,0.5],[1,0.5]];portConstraint=eastwest;whiteSpace=wrap;html=1;" parent="QltmbqzRPkb5CY0XPD9E-37" vertex="1">
          <mxGeometry y="26" width="310" height="134" as="geometry" />
        </mxCell>
        <mxCell id="QltmbqzRPkb5CY0XPD9E-39" value="" style="line;strokeWidth=1;fillColor=none;align=left;verticalAlign=middle;spacingTop=-1;spacingLeft=3;spacingRight=3;rotatable=0;labelPosition=right;points=[];portConstraint=eastwest;strokeColor=inherit;" parent="QltmbqzRPkb5CY0XPD9E-37" vertex="1">
          <mxGeometry y="160" width="310" height="8" as="geometry" />
        </mxCell>
        <mxCell id="QltmbqzRPkb5CY0XPD9E-41" value="Service" style="swimlane;fontStyle=1;align=center;verticalAlign=top;childLayout=stackLayout;horizontal=1;startSize=26;horizontalStack=0;resizeParent=1;resizeParentMax=0;resizeLast=0;collapsible=1;marginBottom=0;whiteSpace=wrap;html=1;fillColor=#dae8fc;strokeColor=#6c8ebf;" parent="1" vertex="1">
          <mxGeometry x="990" y="1039" width="310" height="148" as="geometry" />
        </mxCell>
        <mxCell id="QltmbqzRPkb5CY0XPD9E-42" value="&lt;div&gt;- service_id: INT NOT NULL (PK)&lt;/div&gt;&lt;div&gt;+ service_name: VARCHAR(100) NOT NULL&lt;/div&gt;&lt;div&gt;# service_description: VARCHAR(255) NOT NULL&lt;/div&gt;&lt;div&gt;- service_price: DECIMAL(10,2) NOT NULL&lt;/div&gt;&lt;div&gt;# service_duration: TIME NOT NULL&lt;/div&gt;&lt;div&gt;+ service_type: ENUM(&#39;парикмахерские&#39;, &#39;косметологические&#39;) NOT NULL&lt;/div&gt;&lt;div&gt;&lt;br&gt;&lt;/div&gt;" style="text;strokeColor=none;fillColor=none;align=left;verticalAlign=top;spacingLeft=4;spacingRight=4;overflow=hidden;rotatable=0;points=[[0,0.5],[1,0.5]];portConstraint=eastwest;whiteSpace=wrap;html=1;" parent="QltmbqzRPkb5CY0XPD9E-41" vertex="1">
          <mxGeometry y="26" width="310" height="114" as="geometry" />
        </mxCell>
        <mxCell id="QltmbqzRPkb5CY0XPD9E-43" value="" style="line;strokeWidth=1;fillColor=none;align=left;verticalAlign=middle;spacingTop=-1;spacingLeft=3;spacingRight=3;rotatable=0;labelPosition=right;points=[];portConstraint=eastwest;strokeColor=inherit;" parent="QltmbqzRPkb5CY0XPD9E-41" vertex="1">
          <mxGeometry y="140" width="310" height="8" as="geometry" />
        </mxCell>
        <mxCell id="QltmbqzRPkb5CY0XPD9E-49" value="&lt;font style=&quot;font-size: 14px;&quot;&gt;&lt;b&gt;Диаграмма классов&lt;/b&gt;&lt;/font&gt;" style="text;html=1;align=left;verticalAlign=middle;whiteSpace=wrap;rounded=0;" parent="1" vertex="1">
          <mxGeometry x="490" y="260" width="220" height="30" as="geometry" />
        </mxCell>
        <mxCell id="QltmbqzRPkb5CY0XPD9E-50" value="" style="endArrow=classic;html=1;rounded=0;entryX=0.5;entryY=0;entryDx=0;entryDy=0;exitX=0;exitY=0.5;exitDx=0;exitDy=0;" parent="1" source="QltmbqzRPkb5CY0XPD9E-6" target="QltmbqzRPkb5CY0XPD9E-25" edge="1">
          <mxGeometry width="50" height="50" relative="1" as="geometry">
            <mxPoint x="960" y="440" as="sourcePoint" />
            <mxPoint x="840" y="500" as="targetPoint" />
            <Array as="points">
              <mxPoint x="750" y="411" />
            </Array>
          </mxGeometry>
        </mxCell>
        <mxCell id="QltmbqzRPkb5CY0XPD9E-51" value="" style="endArrow=classic;html=1;rounded=0;exitX=0;exitY=0.5;exitDx=0;exitDy=0;" parent="1" source="QltmbqzRPkb5CY0XPD9E-26" edge="1">
          <mxGeometry width="50" height="50" relative="1" as="geometry">
            <mxPoint x="620" y="760" as="sourcePoint" />
            <mxPoint x="560" y="600" as="targetPoint" />
            <Array as="points">
              <mxPoint x="560" y="790" />
            </Array>
          </mxGeometry>
        </mxCell>
        <mxCell id="QltmbqzRPkb5CY0XPD9E-52" value="1" style="text;html=1;align=center;verticalAlign=middle;whiteSpace=wrap;rounded=0;" parent="1" vertex="1">
          <mxGeometry x="520" y="598" width="60" height="30" as="geometry" />
        </mxCell>
        <mxCell id="QltmbqzRPkb5CY0XPD9E-53" value="1" style="text;html=1;align=center;verticalAlign=middle;whiteSpace=wrap;rounded=0;" parent="1" vertex="1">
          <mxGeometry x="575" y="757" width="60" height="30" as="geometry" />
        </mxCell>
        <mxCell id="QltmbqzRPkb5CY0XPD9E-54" value="Имеет" style="text;html=1;align=center;verticalAlign=middle;whiteSpace=wrap;rounded=0;" parent="1" vertex="1">
          <mxGeometry x="500" y="680" width="60" height="30" as="geometry" />
        </mxCell>
        <mxCell id="J5lZo5swmrn-pVjwOL3w-1" value="Нанимается" style="text;html=1;align=center;verticalAlign=middle;whiteSpace=wrap;rounded=0;" parent="1" vertex="1">
          <mxGeometry x="762" y="522" width="60" height="30" as="geometry" />
        </mxCell>
        <mxCell id="J5lZo5swmrn-pVjwOL3w-2" value="1" style="text;html=1;align=center;verticalAlign=middle;whiteSpace=wrap;rounded=0;" parent="1" vertex="1">
          <mxGeometry x="970" y="380" width="20" height="30" as="geometry" />
        </mxCell>
        <mxCell id="J5lZo5swmrn-pVjwOL3w-3" value="1" style="text;html=1;align=center;verticalAlign=middle;whiteSpace=wrap;rounded=0;" parent="1" vertex="1">
          <mxGeometry x="750" y="688" width="30" height="30" as="geometry" />
        </mxCell>
        <mxCell id="RwvtNw0yJSwjhe-pkvUS-1" value="" style="endArrow=classic;html=1;rounded=0;exitX=0.128;exitY=1;exitDx=0;exitDy=0;exitPerimeter=0;entryX=0.13;entryY=-0.012;entryDx=0;entryDy=0;entryPerimeter=0;" parent="1" source="QltmbqzRPkb5CY0XPD9E-7" target="QltmbqzRPkb5CY0XPD9E-37" edge="1">
          <mxGeometry width="50" height="50" relative="1" as="geometry">
            <mxPoint x="1030" y="510" as="sourcePoint" />
            <mxPoint x="1029" y="770" as="targetPoint" />
          </mxGeometry>
        </mxCell>
        <mxCell id="RwvtNw0yJSwjhe-pkvUS-2" value="Создает" style="text;html=1;align=center;verticalAlign=middle;whiteSpace=wrap;rounded=0;" parent="1" vertex="1">
          <mxGeometry x="970" y="610" width="60" height="30" as="geometry" />
        </mxCell>
        <mxCell id="RwvtNw0yJSwjhe-pkvUS-3" value="1" style="text;html=1;align=center;verticalAlign=middle;whiteSpace=wrap;rounded=0;" parent="1" vertex="1">
          <mxGeometry x="1030" y="494" width="20" height="30" as="geometry" />
        </mxCell>
        <mxCell id="RwvtNw0yJSwjhe-pkvUS-4" value="*" style="text;html=1;align=center;verticalAlign=middle;whiteSpace=wrap;rounded=0;" parent="1" vertex="1">
          <mxGeometry x="1010" y="740" width="20" height="30" as="geometry" />
        </mxCell>
        <mxCell id="RwvtNw0yJSwjhe-pkvUS-5" value="" style="endArrow=classic;html=1;rounded=0;exitX=0.614;exitY=0.85;exitDx=0;exitDy=0;exitPerimeter=0;entryX=0.5;entryY=0;entryDx=0;entryDy=0;" parent="1" source="QltmbqzRPkb5CY0XPD9E-7" target="QltmbqzRPkb5CY0XPD9E-11" edge="1">
          <mxGeometry width="50" height="50" relative="1" as="geometry">
            <mxPoint x="1150.32" y="496.02" as="sourcePoint" />
            <mxPoint x="1150.32" y="780.02" as="targetPoint" />
          </mxGeometry>
        </mxCell>
        <mxCell id="RwvtNw0yJSwjhe-pkvUS-6" value="Регистрируется" style="text;html=1;align=center;verticalAlign=middle;whiteSpace=wrap;rounded=0;" parent="1" vertex="1">
          <mxGeometry x="1200" y="530" width="60" height="30" as="geometry" />
        </mxCell>
        <mxCell id="RwvtNw0yJSwjhe-pkvUS-7" value="1" style="text;html=1;align=center;verticalAlign=middle;whiteSpace=wrap;rounded=0;" parent="1" vertex="1">
          <mxGeometry x="1160" y="494" width="20" height="30" as="geometry" />
        </mxCell>
        <mxCell id="RwvtNw0yJSwjhe-pkvUS-8" value="1" style="text;html=1;align=center;verticalAlign=middle;whiteSpace=wrap;rounded=0;" parent="1" vertex="1">
          <mxGeometry x="1180" y="570" width="20" height="30" as="geometry" />
        </mxCell>
        <mxCell id="RwvtNw0yJSwjhe-pkvUS-11" value="" style="endArrow=classic;html=1;rounded=0;entryX=0.5;entryY=0;entryDx=0;entryDy=0;" parent="1" target="QltmbqzRPkb5CY0XPD9E-37" edge="1">
          <mxGeometry width="50" height="50" relative="1" as="geometry">
            <mxPoint x="1145" y="710" as="sourcePoint" />
            <mxPoint x="1180.32" y="974" as="targetPoint" />
          </mxGeometry>
        </mxCell>
        <mxCell id="RwvtNw0yJSwjhe-pkvUS-12" value="1" style="text;html=1;align=center;verticalAlign=middle;whiteSpace=wrap;rounded=0;" parent="1" vertex="1">
          <mxGeometry x="1120" y="708" width="20" height="30" as="geometry" />
        </mxCell>
        <mxCell id="RwvtNw0yJSwjhe-pkvUS-14" value="*" style="text;html=1;align=center;verticalAlign=middle;whiteSpace=wrap;rounded=0;" parent="1" vertex="1">
          <mxGeometry x="1140" y="750" width="20" height="30" as="geometry" />
        </mxCell>
        <mxCell id="RwvtNw0yJSwjhe-pkvUS-15" value="Создает" style="text;html=1;align=center;verticalAlign=middle;whiteSpace=wrap;rounded=0;" parent="1" vertex="1">
          <mxGeometry x="1150" y="720" width="60" height="30" as="geometry" />
        </mxCell>
        <mxCell id="RwvtNw0yJSwjhe-pkvUS-30" value="" style="endArrow=classic;html=1;rounded=0;exitX=1;exitY=0.5;exitDx=0;exitDy=0;entryX=0;entryY=0.5;entryDx=0;entryDy=0;" parent="1" source="QltmbqzRPkb5CY0XPD9E-26" target="QltmbqzRPkb5CY0XPD9E-38" edge="1">
          <mxGeometry width="50" height="50" relative="1" as="geometry">
            <mxPoint x="920.3199999999999" y="780" as="sourcePoint" />
            <mxPoint x="920.3199999999999" y="1064" as="targetPoint" />
            <Array as="points">
              <mxPoint x="960" y="790" />
              <mxPoint x="960" y="873" />
            </Array>
          </mxGeometry>
        </mxCell>
        <mxCell id="RwvtNw0yJSwjhe-pkvUS-31" value="1" style="text;html=1;align=center;verticalAlign=middle;whiteSpace=wrap;rounded=0;" parent="1" vertex="1">
          <mxGeometry x="876" y="757" width="20" height="30" as="geometry" />
        </mxCell>
        <mxCell id="RwvtNw0yJSwjhe-pkvUS-32" value="*" style="text;html=1;align=center;verticalAlign=middle;whiteSpace=wrap;rounded=0;" parent="1" vertex="1">
          <mxGeometry x="960" y="849" width="20" height="30" as="geometry" />
        </mxCell>
        <mxCell id="RwvtNw0yJSwjhe-pkvUS-33" value="Назначается" style="text;html=1;align=center;verticalAlign=middle;whiteSpace=wrap;rounded=0;" parent="1" vertex="1">
          <mxGeometry x="890" y="800" width="60" height="30" as="geometry" />
        </mxCell>
        <mxCell id="RwvtNw0yJSwjhe-pkvUS-35" value="" style="endArrow=classic;html=1;rounded=0;exitX=0.5;exitY=1;exitDx=0;exitDy=0;entryX=0.5;entryY=0;entryDx=0;entryDy=0;" parent="1" source="QltmbqzRPkb5CY0XPD9E-25" target="QltmbqzRPkb5CY0XPD9E-31" edge="1">
          <mxGeometry width="50" height="50" relative="1" as="geometry">
            <mxPoint x="748.9999999999999" y="840" as="sourcePoint" />
            <mxPoint x="750" y="1060" as="targetPoint" />
          </mxGeometry>
        </mxCell>
        <mxCell id="RwvtNw0yJSwjhe-pkvUS-37" value="1" style="text;html=1;align=center;verticalAlign=middle;whiteSpace=wrap;rounded=0;" parent="1" vertex="1">
          <mxGeometry x="720" y="838" width="20" height="30" as="geometry" />
        </mxCell>
        <mxCell id="RwvtNw0yJSwjhe-pkvUS-39" value="*" style="text;html=1;align=center;verticalAlign=middle;whiteSpace=wrap;rounded=0;" parent="1" vertex="1">
          <mxGeometry x="750" y="1030" width="20" height="30" as="geometry" />
        </mxCell>
        <mxCell id="RwvtNw0yJSwjhe-pkvUS-40" value="" style="endArrow=classic;html=1;rounded=0;exitX=0;exitY=0.5;exitDx=0;exitDy=0;entryX=1.009;entryY=0.414;entryDx=0;entryDy=0;entryPerimeter=0;" parent="1" source="QltmbqzRPkb5CY0XPD9E-42" target="QltmbqzRPkb5CY0XPD9E-32" edge="1">
          <mxGeometry width="50" height="50" relative="1" as="geometry">
            <mxPoint x="940.3199999999999" y="950" as="sourcePoint" />
            <mxPoint x="940.3199999999999" y="1234" as="targetPoint" />
          </mxGeometry>
        </mxCell>
        <mxCell id="DMl_ZsC-igTKcRbMkjdk-1" value="1" style="text;html=1;align=center;verticalAlign=middle;whiteSpace=wrap;rounded=0;" parent="1" vertex="1">
          <mxGeometry x="860" y="1090" width="20" height="30" as="geometry" />
        </mxCell>
        <mxCell id="DMl_ZsC-igTKcRbMkjdk-2" value="*" style="text;html=1;align=center;verticalAlign=middle;whiteSpace=wrap;rounded=0;" parent="1" vertex="1">
          <mxGeometry x="970" y="1120" width="20" height="30" as="geometry" />
        </mxCell>
        <mxCell id="DMl_ZsC-igTKcRbMkjdk-3" value="Предоставляет" style="text;html=1;align=center;verticalAlign=middle;whiteSpace=wrap;rounded=0;" parent="1" vertex="1">
          <mxGeometry x="770" y="940" width="60" height="30" as="geometry" />
        </mxCell>
        <mxCell id="DMl_ZsC-igTKcRbMkjdk-4" value="Предоставляется" style="text;html=1;align=center;verticalAlign=middle;whiteSpace=wrap;rounded=0;" parent="1" vertex="1">
          <mxGeometry x="890" y="1120" width="60" height="30" as="geometry" />
        </mxCell>
        <mxCell id="DMl_ZsC-igTKcRbMkjdk-5" value="" style="endArrow=classic;html=1;rounded=0;exitX=0.5;exitY=0;exitDx=0;exitDy=0;entryX=0.5;entryY=1;entryDx=0;entryDy=0;" parent="1" source="QltmbqzRPkb5CY0XPD9E-41" target="QltmbqzRPkb5CY0XPD9E-37" edge="1">
          <mxGeometry width="50" height="50" relative="1" as="geometry">
            <mxPoint x="1078.02" y="1000.36" as="sourcePoint" />
            <mxPoint x="950.02" y="1000.36" as="targetPoint" />
          </mxGeometry>
        </mxCell>
        <mxCell id="DMl_ZsC-igTKcRbMkjdk-6" value="Назначается" style="text;html=1;align=center;verticalAlign=middle;whiteSpace=wrap;rounded=0;" parent="1" vertex="1">
          <mxGeometry x="1160" y="970" width="60" height="30" as="geometry" />
        </mxCell>
        <mxCell id="DMl_ZsC-igTKcRbMkjdk-7" value="1" style="text;html=1;align=center;verticalAlign=middle;whiteSpace=wrap;rounded=0;" parent="1" vertex="1">
          <mxGeometry x="1120" y="948" width="20" height="30" as="geometry" />
        </mxCell>
        <mxCell id="DMl_ZsC-igTKcRbMkjdk-9" value="*" style="text;html=1;align=center;verticalAlign=middle;whiteSpace=wrap;rounded=0;" parent="1" vertex="1">
          <mxGeometry x="1140" y="1009" width="30" height="30" as="geometry" />
        </mxCell>
      </root>
    </mxGraphModel>
  </diagram>
</mxfile>
